<svg xmlns="http://www.w3.org/2000/svg" viewBox="0 0 19.84 19.84"><defs><style>.cls-1{fill:none;}</style></defs><g id="Layer_2" data-name="Layer 2"><g id="Layer_2-2" data-name="Layer 2"><path class="cls-1" d="M18.05,7.64a4.38,4.38,0,0,0-6.74-3.13L8.82,3.42a.19.19,0,0,0-.25.1L8.08,4.64A1.21,1.21,0,1,0,6.25,6.12H4.66a.18.18,0,0,0-.18.18V9a4.37,4.37,0,1,0,5,0V6.3a.19.19,0,0,0-.19-.18H7.72a1.28,1.28,0,0,0,.47-.85H9.3a1,1,0,0,1,1,1V8.5a5.46,5.46,0,0,1,.65.62,2.88,2.88,0,1,1,.79,1.2,5.37,5.37,0,0,1,.51,2,4.38,4.38,0,0,0,5.77-4.69Zm-11.51-3a.65.65,0,1,1,.88,1,.65.65,0,0,1-.88-1ZM7.38,8a.09.09,0,0,1-.09.13H6.67A.09.09,0,0,1,6.59,8l.15-.36a.43.43,0,1,1,.48,0Zm2.1,3.24a2.87,2.87,0,1,1-3.91-1.08A2.87,2.87,0,0,1,9.48,11.2Z"/><path d="M18.88,5.67a9.91,9.91,0,1,0-4.72,13.21A9.91,9.91,0,0,0,18.88,5.67Zm-2.41,5.92a4.4,4.4,0,0,1-4.19.74,5.37,5.37,0,0,0-.51-2A2.88,2.88,0,1,0,11,9.12a5.46,5.46,0,0,0-.65-.62V6.3a1,1,0,0,0-1-1H8.19a1.28,1.28,0,0,1-.47.85H9.3a.19.19,0,0,1,.19.18V9a4.38,4.38,0,1,1-5,0V6.3a.18.18,0,0,1,.18-.18H6.25A1.21,1.21,0,1,1,8.08,4.64l.49-1.12a.19.19,0,0,1,.25-.1l2.49,1.09a4.39,4.39,0,0,1,5.16,7.08Z"/><path d="M8.39,15.11A2.87,2.87,0,1,1,9.48,11.2,2.87,2.87,0,0,1,8.39,15.11Z"/><path class="cls-1" d="M18.05,7.64a4.38,4.38,0,0,0-6.74-3.13L8.82,3.42a.19.19,0,0,0-.25.1L8.08,4.64A1.21,1.21,0,1,0,6.25,6.12H4.66a.18.18,0,0,0-.18.18V9a4.37,4.37,0,1,0,5,0V6.3a.19.19,0,0,0-.19-.18H7.72a1.28,1.28,0,0,0,.47-.85H9.3a1,1,0,0,1,1,1V8.5a5.46,5.46,0,0,1,.65.62,2.88,2.88,0,1,1,.79,1.2,5.37,5.37,0,0,1,.51,2,4.38,4.38,0,0,0,5.77-4.69Zm-11.51-3a.65.65,0,1,1,.88,1,.65.65,0,0,1-.88-1ZM7.38,8a.09.09,0,0,1-.09.13H6.67A.09.09,0,0,1,6.59,8l.15-.36a.43.43,0,1,1,.48,0Zm2.1,3.24a2.87,2.87,0,1,1-3.91-1.08A2.87,2.87,0,0,1,9.48,11.2Z"/><path d="M7.42,5.63a.65.65,0,0,1-.88-1,.65.65,0,1,1,.88,1Z"/><path d="M7.22,7.6,7.38,8a.09.09,0,0,1-.09.13H6.67A.09.09,0,0,1,6.59,8l.15-.36a.43.43,0,1,1,.48,0Z"/></g></g></svg>