<svg xmlns="http://www.w3.org/2000/svg" viewBox="0 0 19.84 19.84"><defs><style>.cls-1{fill:none;}</style></defs><g id="Layer_2" data-name="Layer 2"><g id="Layer_2-2" data-name="Layer 2"><path d="M18.76,5.43a9.92,9.92,0,1,0-4.34,13.33A9.91,9.91,0,0,0,18.76,5.43ZM6.16,17.86a8.71,8.71,0,0,1-3.35-2.79,17.37,17.37,0,0,1,6.55-1.51V12a.08.08,0,0,0-.09-.08H6.18a.09.09,0,0,1,0-.16A8.36,8.36,0,0,0,8.28,9.43H7a.09.09,0,0,1,0-.15A10.94,10.94,0,0,0,8.88,6.91H7.7a.08.08,0,0,1-.07-.14A11.37,11.37,0,0,0,9.84,3,.09.09,0,0,1,10,3a11.58,11.58,0,0,0,2.22,3.76.09.09,0,0,1-.07.14H11a10.94,10.94,0,0,0,1.89,2.37.09.09,0,0,1-.06.15H11.57a8.36,8.36,0,0,0,2.15,2.29.09.09,0,0,1-.05.16H10.58a.08.08,0,0,0-.09.08V13.5l1.23-.05a11.84,11.84,0,0,0-3.38,1.89A11.94,11.94,0,0,0,6.16,17.86Zm3.26.83a5.73,5.73,0,0,1,.65-2.58,4.37,4.37,0,0,1,1-1.2,9.68,9.68,0,0,1,1.84-1.22,12.28,12.28,0,0,1,1.93.5,5.47,5.47,0,0,1,2,1.18A8.77,8.77,0,0,1,9.42,18.69Z"/><path class="cls-1" d="M11.72,13.45a11.84,11.84,0,0,0-3.38,1.89,11.94,11.94,0,0,0-2.18,2.52,8.71,8.71,0,0,1-3.35-2.79,17.37,17.37,0,0,1,6.55-1.51V12a.08.08,0,0,0-.09-.08H6.18a.09.09,0,0,1,0-.16A8.36,8.36,0,0,0,8.28,9.43H7a.09.09,0,0,1,0-.15A10.94,10.94,0,0,0,8.88,6.91H7.7a.08.08,0,0,1-.07-.14A11.37,11.37,0,0,0,9.84,3,.09.09,0,0,1,10,3a11.58,11.58,0,0,0,2.22,3.76.09.09,0,0,1-.07.14H11a10.94,10.94,0,0,0,1.89,2.37.09.09,0,0,1-.06.15H11.57a8.36,8.36,0,0,0,2.15,2.29.09.09,0,0,1-.05.16H10.58a.08.08,0,0,0-.09.08V13.5Z"/><path class="cls-1" d="M16.82,15.37a8.77,8.77,0,0,1-7.4,3.32,5.73,5.73,0,0,1,.65-2.58,4.37,4.37,0,0,1,1-1.2,9.68,9.68,0,0,1,1.84-1.22,12.28,12.28,0,0,1,1.93.5A5.47,5.47,0,0,1,16.82,15.37Z"/><path class="cls-1" d="M16.82,15.37a8.77,8.77,0,0,1-7.4,3.32,5.73,5.73,0,0,1,.65-2.58,4.37,4.37,0,0,1,1-1.2,9.68,9.68,0,0,1,1.84-1.22,12.28,12.28,0,0,1,1.93.5A5.47,5.47,0,0,1,16.82,15.37Z"/><line class="cls-1" x1="11.73" y1="13.45" x2="11.72" y2="13.45"/></g></g></svg>