<svg xmlns="http://www.w3.org/2000/svg" viewBox="0 0 19.84 19.84"><defs><style>.cls-1{fill:none;}</style></defs><g id="Layer_2" data-name="Layer 2"><g id="Layer_2-2" data-name="Layer 2"><path class="cls-1" d="M14,11a3.38,3.38,0,0,0-.73-1.14A4,4,0,0,0,12,9.05a10.57,10.57,0,0,0-1.44-.43V3.93a2.1,2.1,0,0,1,1.06.63A2.69,2.69,0,0,1,12.24,6l1.68-.26a3.65,3.65,0,0,0-1.28-2.42,3.74,3.74,0,0,0-2.06-.81v-.8H9.25v.8A4.14,4.14,0,0,0,7,3.4,3.58,3.58,0,0,0,5.78,6.21,3.56,3.56,0,0,0,6.2,8a3,3,0,0,0,1.19,1.2,6.89,6.89,0,0,0,1.86.73v5.19a2.41,2.41,0,0,1-1.45-.94,4.15,4.15,0,0,1-.67-1.92l-1.63.3a4.53,4.53,0,0,0,.64,2.14,3.47,3.47,0,0,0,1.32,1.27,6,6,0,0,0,1.79.52v1.65h1.33V16.43a3.84,3.84,0,0,0,2.59-1.19,3.93,3.93,0,0,0,1.08-2.82A3.9,3.9,0,0,0,14,11ZM9.25,8.3a3,3,0,0,1-1.39-.83A2.1,2.1,0,0,1,7.4,6.08,2.08,2.08,0,0,1,8,4.63a2.33,2.33,0,0,1,1.3-.73Zm2.71,6a2.36,2.36,0,0,1-1.38.79V10.21a3.54,3.54,0,0,1,1.56.9,2.19,2.19,0,0,1,.44,1.42A2.56,2.56,0,0,1,12,14.27Z"/><path d="M18.88,5.67a9.92,9.92,0,1,0-4.72,13.21A9.92,9.92,0,0,0,18.88,5.67Zm-5.71,9.57a3.84,3.84,0,0,1-2.59,1.19v1.66H9.25V16.44a6,6,0,0,1-1.79-.52,3.47,3.47,0,0,1-1.32-1.27,4.53,4.53,0,0,1-.64-2.14l1.63-.3a4.15,4.15,0,0,0,.67,1.92,2.41,2.41,0,0,0,1.45.94V9.88a6.89,6.89,0,0,1-1.86-.73A3,3,0,0,1,6.2,8a3.56,3.56,0,0,1-.42-1.74A3.58,3.58,0,0,1,7,3.4a4.14,4.14,0,0,1,2.25-.86v-.8h1.33v.8a3.74,3.74,0,0,1,2.06.81,3.65,3.65,0,0,1,1.28,2.42L12.24,6a2.69,2.69,0,0,0-.6-1.47,2.1,2.1,0,0,0-1.06-.63V8.62A10.57,10.57,0,0,1,12,9.05a4,4,0,0,1,1.24.81A3.38,3.38,0,0,1,14,11a3.9,3.9,0,0,1,.26,1.42A3.93,3.93,0,0,1,13.17,15.24Z"/><path class="cls-1" d="M14,11a3.38,3.38,0,0,0-.73-1.14A4,4,0,0,0,12,9.05a10.57,10.57,0,0,0-1.44-.43V3.93a2.1,2.1,0,0,1,1.06.63A2.69,2.69,0,0,1,12.24,6l1.68-.26a3.65,3.65,0,0,0-1.28-2.42,3.74,3.74,0,0,0-2.06-.81v-.8H9.25v.8A4.14,4.14,0,0,0,7,3.4,3.58,3.58,0,0,0,5.78,6.21,3.56,3.56,0,0,0,6.2,8a3,3,0,0,0,1.19,1.2,6.89,6.89,0,0,0,1.86.73v5.19a2.41,2.41,0,0,1-1.45-.94,4.15,4.15,0,0,1-.67-1.92l-1.63.3a4.53,4.53,0,0,0,.64,2.14,3.47,3.47,0,0,0,1.32,1.27,6,6,0,0,0,1.79.52v1.65h1.33V16.43a3.84,3.84,0,0,0,2.59-1.19,3.93,3.93,0,0,0,1.08-2.82A3.9,3.9,0,0,0,14,11ZM9.25,8.3a3,3,0,0,1-1.39-.83A2.1,2.1,0,0,1,7.4,6.08,2.08,2.08,0,0,1,8,4.63a2.33,2.33,0,0,1,1.3-.73Zm2.71,6a2.36,2.36,0,0,1-1.38.79V10.21a3.54,3.54,0,0,1,1.56.9,2.19,2.19,0,0,1,.44,1.42A2.56,2.56,0,0,1,12,14.27Z"/><path d="M9.25,3.9V8.3a3,3,0,0,1-1.39-.83A2.1,2.1,0,0,1,7.4,6.08,2.08,2.08,0,0,1,8,4.63,2.33,2.33,0,0,1,9.25,3.9Z"/><path d="M12.58,12.53A2.56,2.56,0,0,1,12,14.27a2.36,2.36,0,0,1-1.38.79V10.21a3.54,3.54,0,0,1,1.56.9A2.19,2.19,0,0,1,12.58,12.53Z"/></g></g></svg>