<svg xmlns="http://www.w3.org/2000/svg" viewBox="0 0 19.84 19.84"><defs><style>.cls-1{fill:none;}</style></defs><g id="Layer_2" data-name="Layer 2"><g id="Layer_2-2" data-name="Layer 2"><polygon class="cls-1" points="8.07 7.69 3.44 8.65 4.49 3.9 7.14 3.9 8.07 7.69"/><polyline class="cls-1" points="12.28 11.79 12.34 11.6 12.36 11.61"/><polygon class="cls-1" points="17.34 12.96 12.24 12.96 13.91 7.77 16.5 9.14 17.34 12.96"/><polygon class="cls-1" points="12.55 3.9 8.38 7.6 7.47 3.9 12.55 3.9"/><polygon class="cls-1" points="16.41 8.72 10.89 5.81 13.05 3.9 15.34 3.9 16.41 8.72"/><polygon class="cls-1" points="12.24 11.91 11.9 12.96 2.49 12.96 3.36 9 5.45 8.56 12.24 11.91"/><polygon class="cls-1" points="8.07 7.69 3.44 8.65 4.49 3.9 7.14 3.9 8.07 7.69"/><polygon class="cls-1" points="12.24 11.91 11.9 12.96 2.49 12.96 3.36 9 5.45 8.56 12.24 11.91"/><polygon class="cls-1" points="8.38 7.6 7.47 3.9 12.55 3.9 8.38 7.6"/><polygon class="cls-1" points="10.63 6.04 13.62 7.62 12.34 11.6 5.97 8.46 8.49 7.93 10.63 6.04"/><polygon class="cls-1" points="10.89 5.81 13.05 3.9 15.34 3.9 16.41 8.72 10.89 5.81"/><polygon class="cls-1" points="17.34 12.96 12.24 12.96 13.91 7.77 16.5 9.14 17.34 12.96"/><path class="cls-1" d="M16.05,3.26H3.79L1.16,13.76H18.67Zm-14,10L4.23,3.61H15.6l2.17,9.62Z"/><polygon class="cls-1" points="8.07 7.69 3.44 8.65 4.49 3.9 7.14 3.9 8.07 7.69"/><polygon class="cls-1" points="12.24 11.91 11.9 12.96 2.49 12.96 3.36 9 5.45 8.56 12.24 11.91"/><polygon class="cls-1" points="8.38 7.6 7.47 3.9 12.55 3.9 8.38 7.6"/><polygon class="cls-1" points="10.63 6.04 13.62 7.62 12.34 11.6 5.97 8.46 8.49 7.93 10.63 6.04"/><polygon class="cls-1" points="10.89 5.81 13.05 3.9 15.34 3.9 16.41 8.72 10.89 5.81"/><polygon class="cls-1" points="17.34 12.96 12.24 12.96 13.91 7.77 16.5 9.14 17.34 12.96"/><path d="M15,1.4A9.92,9.92,0,1,0,18.43,15,9.92,9.92,0,0,0,15,1.4ZM1.16,13.76,3.79,3.26H16.05l2.62,10.5Z"/><path d="M15.6,3.61H4.23L2.06,13.23H17.77Zm-.26.29,1.07,4.82L10.89,5.81,13.05,3.9ZM13.62,7.62l-1.28,4L6,8.46l2.52-.53L10.63,6ZM12.55,3.9,8.38,7.6,7.47,3.9Zm-8.06,0H7.14l.93,3.79-4.63,1ZM2.49,13l.87-4,2.09-.44,6.79,3.35L11.9,13ZM13.91,7.77,16.5,9.14,17.34,13h-5.1Z"/><polygon class="cls-1" points="8.07 7.69 3.44 8.65 4.49 3.9 7.14 3.9 8.07 7.69"/><polygon class="cls-1" points="12.24 11.91 11.9 12.96 2.49 12.96 3.36 9 5.45 8.56 12.24 11.91"/><polygon class="cls-1" points="8.38 7.6 7.47 3.9 12.55 3.9 8.38 7.6"/><polygon class="cls-1" points="10.63 6.04 13.62 7.62 12.34 11.6 5.97 8.46 8.49 7.93 10.63 6.04"/><polygon class="cls-1" points="10.89 5.81 13.05 3.9 15.34 3.9 16.41 8.72 10.89 5.81"/><polygon class="cls-1" points="17.34 12.96 12.24 12.96 13.91 7.77 16.5 9.14 17.34 12.96"/><path class="cls-1" d="M16.05,3.26H3.79L1.16,13.76H18.67Zm-14,10L4.23,3.61H15.6l2.17,9.62Z"/></g></g></svg>