<svg xmlns="http://www.w3.org/2000/svg" viewBox="0 0 19.84 19.84"><defs><style>.cls-1{fill:none;}</style></defs><g id="Layer_2" data-name="Layer 2"><g id="Layer_2-2" data-name="Layer 2"><polygon class="cls-1" points="19.16 10.3 18.38 11.3 17.44 10.57 15.95 12.89 14.09 10.46 12.43 13.42 10.79 9.49 9.24 15.43 7.45 10.18 6.3 13.63 4.41 10.7 3.35 12.19 0.81 9.64 1.71 8.75 3.19 10.23 4.47 8.44 5.93 10.71 7.43 6.21 9.08 11.03 10.52 5.52 12.6 10.52 13.92 8.15 15.86 10.68 17.13 8.71 19.16 10.3"/><path d="M18.76,5.42a9.92,9.92,0,1,0-4.34,13.33A9.92,9.92,0,0,0,18.76,5.42Zm-1.32,5.15L16,12.89l-1.86-2.43-1.66,3L10.79,9.49,9.24,15.43,7.45,10.18,6.3,13.63,4.41,10.7,3.35,12.19.81,9.64l.9-.89,1.48,1.48L4.47,8.44l1.46,2.27,1.5-4.5L9.08,11l1.44-5.51,2.08,5,1.32-2.37,1.94,2.53,1.27-2,2,1.59-.78,1Z"/><polygon class="cls-1" points="19.16 10.3 18.38 11.3 17.44 10.57 15.95 12.89 14.09 10.46 12.43 13.42 10.79 9.49 9.24 15.43 7.45 10.18 6.3 13.63 4.41 10.7 3.35 12.19 0.81 9.64 1.71 8.75 3.19 10.23 4.47 8.44 5.93 10.71 7.43 6.21 9.08 11.03 10.52 5.52 12.6 10.52 13.92 8.15 15.86 10.68 17.13 8.71 19.16 10.3"/></g></g></svg>