<svg xmlns="http://www.w3.org/2000/svg" viewBox="0 0 19.84 19.84"><defs><style>.cls-1{fill:none;}</style></defs><g id="Layer_2" data-name="Layer 2"><g id="Layer_2-2" data-name="Layer 2"><path class="cls-1" d="M15.07,7.72a2.11,2.11,0,0,1-2.67,0,2.53,2.53,0,0,0-.75-1.35,2.09,2.09,0,1,1,3.42,1.32Z"/><path class="cls-1" d="M17.3,10.78v2.63H14v-.49a2.7,2.7,0,0,0-.87-2,3.09,3.09,0,0,0-1-.61,3.41,3.41,0,0,0-.55-.14,2.65,2.65,0,0,0,.29-.29,2.58,2.58,0,0,0,.61-1.45h2.37a2.59,2.59,0,0,1,1.73.65,2.26,2.26,0,0,1,.57.8A2.11,2.11,0,0,1,17.3,10.78Z"/><path class="cls-1" d="M8.2,6.4a2.54,2.54,0,0,0-.76,1.35A2.09,2.09,0,1,1,8.2,6.4Z"/><path class="cls-1" d="M8.3,10.21a3.41,3.41,0,0,0-.55.14,2.88,2.88,0,0,0-1,.61,2.71,2.71,0,0,0-.66.94,2.55,2.55,0,0,0-.21,1v.49H2.54V10.78A2.24,2.24,0,0,1,3.3,9.12,2.54,2.54,0,0,1,5,8.47H7.4A2.52,2.52,0,0,0,8.3,10.21Z"/><path class="cls-1" d="M13.51,12.92v2.63H6.33V12.92a2.24,2.24,0,0,1,.76-1.66,2.57,2.57,0,0,1,1.73-.65H11a2.54,2.54,0,0,1,1.72.65A2.2,2.2,0,0,1,13.51,12.92Z"/><path class="cls-1" d="M11.19,9.92a1.87,1.87,0,0,1-.41.25,2.12,2.12,0,1,1,.41-.25Z"/><path d="M18.63,5.18a9.91,9.91,0,1,0,1.21,4.74A9.9,9.9,0,0,0,18.63,5.18Zm-5.58-1a2.1,2.1,0,0,1,2,3.58,2.11,2.11,0,0,1-2.67,0,2.53,2.53,0,0,0-.75-1.35A2.08,2.08,0,0,1,13.05,4.14Zm-4,2.22a2.09,2.09,0,0,1,2.13,3.56,1.87,1.87,0,0,1-.41.25A2.09,2.09,0,0,1,9.06,6.36ZM4.31,5.1A2.09,2.09,0,0,1,8.2,6.4a2.54,2.54,0,0,0-.76,1.35A2.09,2.09,0,0,1,4.31,5.1Zm1.58,7.82v.49H2.54V10.78A2.24,2.24,0,0,1,3.3,9.12,2.54,2.54,0,0,1,5,8.47H7.4a2.52,2.52,0,0,0,.9,1.74,3.41,3.41,0,0,0-.55.14,2.88,2.88,0,0,0-1,.61,2.71,2.71,0,0,0-.66.94A2.55,2.55,0,0,0,5.89,12.92Zm7.62,2.63H6.33V12.92a2.24,2.24,0,0,1,.76-1.66,2.57,2.57,0,0,1,1.73-.65H11a2.54,2.54,0,0,1,1.72.65,2.2,2.2,0,0,1,.76,1.66Zm3.79-2.14H14v-.49a2.7,2.7,0,0,0-.87-2,3.09,3.09,0,0,0-1-.61,3.41,3.41,0,0,0-.55-.14,2.65,2.65,0,0,0,.29-.29,2.58,2.58,0,0,0,.61-1.45h2.37a2.59,2.59,0,0,1,1.73.65,2.26,2.26,0,0,1,.57.8,2.11,2.11,0,0,1,.18.86Z"/><path class="cls-1" d="M6.76,11a2.71,2.71,0,0,0-.66.94,2.55,2.55,0,0,0-.21,1v.49H2.54V10.78A2.24,2.24,0,0,1,3.3,9.12,2.54,2.54,0,0,1,5,8.47H7.4a2.52,2.52,0,0,0,.9,1.74,3.41,3.41,0,0,0-.55.14A2.88,2.88,0,0,0,6.76,11Z"/><path class="cls-1" d="M4.78,7.72A2.09,2.09,0,1,1,8.2,6.4a2.54,2.54,0,0,0-.76,1.35A2.1,2.1,0,0,1,4.78,7.72Z"/><path class="cls-1" d="M9.06,6.36a2.09,2.09,0,0,1,2.13,3.56,1.87,1.87,0,0,1-.41.25A2.09,2.09,0,0,1,9.06,6.36Z"/><path class="cls-1" d="M12.75,11.26a2.2,2.2,0,0,1,.76,1.66v2.63H6.33V12.92a2.24,2.24,0,0,1,.76-1.66,2.57,2.57,0,0,1,1.73-.65H11A2.54,2.54,0,0,1,12.75,11.26Z"/><path class="cls-1" d="M11.65,6.4a2.09,2.09,0,1,1,3.42,1.32,2.11,2.11,0,0,1-2.67,0A2.53,2.53,0,0,0,11.65,6.4Z"/><path class="cls-1" d="M17.3,10.78v2.63H14v-.49a2.7,2.7,0,0,0-.87-2,3.09,3.09,0,0,0-1-.61,3.41,3.41,0,0,0-.55-.14,2.65,2.65,0,0,0,.29-.29,2.58,2.58,0,0,0,.61-1.45h2.37a2.59,2.59,0,0,1,1.73.65,2.26,2.26,0,0,1,.57.8A2.11,2.11,0,0,1,17.3,10.78Z"/></g></g></svg>