<svg xmlns="http://www.w3.org/2000/svg" viewBox="0 0 19.84 19.84"><defs><style>.cls-1{fill:none;}</style></defs><g id="Layer_2" data-name="Layer 2"><g id="Layer_2-2" data-name="Layer 2"><path class="cls-1" d="M15.23,3.46H4.6a.19.19,0,0,0-.19.18V15.08a.19.19,0,0,0,.19.19H5.8v1.81a.18.18,0,0,0,.19.18H7.35a.18.18,0,0,0,.19-.18V15.27h4.75v1.81a.19.19,0,0,0,.19.18h1.37a.18.18,0,0,0,.18-.18V15.27h1.2a.18.18,0,0,0,.19-.19V3.64A.18.18,0,0,0,15.23,3.46ZM7.19,4a.2.2,0,0,1,.19-.19h5.07a.19.19,0,0,1,.19.19v.63a.18.18,0,0,1-.19.18H7.38a.19.19,0,0,1-.19-.18Zm-.7,10.13a.8.8,0,0,1-.8-.8.8.8,0,0,1,1.6,0A.8.8,0,0,1,6.49,14.14Zm5.08-.09a.09.09,0,0,1-.09.09H8.35a.09.09,0,0,1-.09-.09v-.34a.1.1,0,0,1,.09-.1h3.13a.1.1,0,0,1,.09.1Zm0-1.07a.09.09,0,0,1-.09.09H8.35A.09.09,0,0,1,8.26,13v-.34a.09.09,0,0,1,.09-.09h3.13a.09.09,0,0,1,.09.09Zm1.77,1.16a.79.79,0,0,1-.79-.8.79.79,0,0,1,.79-.79.79.79,0,0,1,.8.79A.8.8,0,0,1,13.34,14.14Zm1.17-4.41a.19.19,0,0,1-.18.19H5.51a.19.19,0,0,1-.19-.19V5.38a.19.19,0,0,1,.19-.19h8.82a.19.19,0,0,1,.18.19Z"/><path d="M14.51,5.38V9.73a.19.19,0,0,1-.18.19H5.51a.19.19,0,0,1-.19-.19V5.38a.19.19,0,0,1,.19-.19h8.82A.19.19,0,0,1,14.51,5.38Z"/><path class="cls-1" d="M15.23,3.46H4.6a.19.19,0,0,0-.19.18V15.08a.19.19,0,0,0,.19.19H5.8v1.81a.18.18,0,0,0,.19.18H7.35a.18.18,0,0,0,.19-.18V15.27h4.75v1.81a.19.19,0,0,0,.19.18h1.37a.18.18,0,0,0,.18-.18V15.27h1.2a.18.18,0,0,0,.19-.19V3.64A.18.18,0,0,0,15.23,3.46ZM7.19,4a.2.2,0,0,1,.19-.19h5.07a.19.19,0,0,1,.19.19v.63a.18.18,0,0,1-.19.18H7.38a.19.19,0,0,1-.19-.18Zm-.7,10.13a.8.8,0,0,1-.8-.8.8.8,0,0,1,1.6,0A.8.8,0,0,1,6.49,14.14Zm5.08-.09a.09.09,0,0,1-.09.09H8.35a.09.09,0,0,1-.09-.09v-.34a.1.1,0,0,1,.09-.1h3.13a.1.1,0,0,1,.09.1Zm0-1.07a.09.09,0,0,1-.09.09H8.35A.09.09,0,0,1,8.26,13v-.34a.09.09,0,0,1,.09-.09h3.13a.09.09,0,0,1,.09.09Zm1.77,1.16a.79.79,0,0,1-.79-.8.79.79,0,0,1,.79-.79.79.79,0,0,1,.8.79A.8.8,0,0,1,13.34,14.14Zm1.17-4.41a.19.19,0,0,1-.18.19H5.51a.19.19,0,0,1-.19-.19V5.38a.19.19,0,0,1,.19-.19h8.82a.19.19,0,0,1,.18.19Z"/><path d="M18.76,5.42a9.92,9.92,0,1,0-4.35,13.33A9.92,9.92,0,0,0,18.76,5.42Zm-3.34,9.66a.18.18,0,0,1-.19.19H14v1.81a.18.18,0,0,1-.18.18H12.48a.19.19,0,0,1-.19-.18V15.27H7.54v1.81a.18.18,0,0,1-.19.18H6a.18.18,0,0,1-.19-.18V15.27H4.6a.19.19,0,0,1-.19-.19V3.64a.19.19,0,0,1,.19-.18H15.23a.18.18,0,0,1,.19.18Z"/><path d="M14.14,13.34a.8.8,0,0,1-.8.8.79.79,0,0,1-.79-.8.79.79,0,0,1,.79-.79A.79.79,0,0,1,14.14,13.34Z"/><path d="M11.57,13.71v.34a.09.09,0,0,1-.09.09H8.35a.09.09,0,0,1-.09-.09v-.34a.1.1,0,0,1,.09-.1h3.13A.1.1,0,0,1,11.57,13.71Z"/><rect x="8.26" y="12.55" width="3.31" height="0.52" rx="0.09"/><path d="M7.29,13.34a.8.8,0,0,1-1.6,0,.8.8,0,0,1,1.6,0Z"/><path d="M12.64,4v.63a.18.18,0,0,1-.19.18H7.38a.19.19,0,0,1-.19-.18V4a.2.2,0,0,1,.19-.19h5.07A.19.19,0,0,1,12.64,4Z"/></g></g></svg>