<svg xmlns="http://www.w3.org/2000/svg" viewBox="0 0 81.38 77.91"><defs><style>.cls-1{fill:none;stroke:#231f20;stroke-miterlimit:10;}</style></defs><g id="Layer_2" data-name="Layer 2"><g id="Layer_1-2" data-name="Layer 1"><line class="cls-1" x1="0.01" y1="77.41" x2="81.38" y2="77.41"/><circle class="cls-1" cx="13.81" cy="61.07" r="2.6"/><line class="cls-1" x1="0.5" y1="77.87" x2="0.5"/><circle class="cls-1" cx="43.55" cy="57.09" r="2.6"/><circle class="cls-1" cx="29.19" cy="53.64" r="2.6"/><circle class="cls-1" cx="70.16" cy="47.4" r="2.6"/><path class="cls-1" d="M5.47,64.27c3.15-4.95,8.39-11.37,16.59-14.55,13-5,22.15,2.44,33.58-.89C62.9,46.71,72,40,79.25,19.21"/><rect class="cls-1" x="13.59" y="42.29" width="4.57" height="4.57" transform="translate(-26.87 24.28) rotate(-45)"/><rect class="cls-1" x="21.69" y="30.64" width="4.57" height="4.57" transform="translate(-16.25 26.6) rotate(-45)"/><rect class="cls-1" x="31.69" y="37.64" width="4.57" height="4.57" transform="translate(-18.28 35.72) rotate(-45)"/><rect class="cls-1" x="46.69" y="41.64" width="4.57" height="4.57" transform="translate(-16.71 47.5) rotate(-45)"/><rect class="cls-1" x="58.69" y="36.64" width="4.57" height="4.57" transform="translate(-9.66 54.52) rotate(-45)"/><rect class="cls-1" x="64.69" y="25.64" width="4.57" height="4.57" transform="translate(-0.13 55.54) rotate(-45)"/><circle class="cls-1" cx="56.47" cy="54.41" r="2.6"/></g></g></svg>